<svg xmlns="http://www.w3.org/2000/svg" xml:space="preserve" width="73.539" height="13.539" style="shape-rendering:geometricPrecision;text-rendering:geometricPrecision;image-rendering:optimizeQuality;fill-rule:evenodd;clip-rule:evenodd" viewBox="0 0 324 60"><defs><style>.str0,.str1{stroke:#f9ede4;stroke-width:2.81992;stroke-linecap:round;stroke-linejoin:round}.str1{stroke-width:3.33127}.fil0{fill:none}.fil1{fill:#cfa58a}</style></defs><g id="Слой_x0020_1"><path class="fil0 str0" d="M106 54c8-5 13-13 13-23-5 0-9-1-13-4-4-2-8-5-10-9s-3-9-3-14c-10 0-19 6-23 14-3 3-4 8-4 13 0 14 12 26 27 26 4 0 9-1 13-3zM106 8c4 2 7 6 9 10 3-4 4-9 4-14-5 0-9 2-13 4z"/><circle class="fil1 str1" cx="77" cy="31" r="4"/><circle class="fil1 str1" cx="85" cy="18" r="2"/><circle class="fil1 str1" cx="86" cy="47" r="2"/><circle class="fil1 str1" cx="101" cy="40" r="4"/><circle class="fil0 str0" cx="165" cy="31" r="26"/><circle class="fil1 str1" cx="149" cy="31" r="4"/><circle class="fil1 str1" cx="157" cy="18" r="2"/><circle class="fil1 str1" cx="157" cy="47" r="2"/><circle class="fil1 str1" cx="172" cy="40" r="4"/><circle class="fil1 str1" cx="175" cy="21" r="4"/><path class="fil0 str1" d="M50 10C39-1 21-1 10 10s-11 29 0 40 29 11 40 0M210 57V4M238 5l-28 27M245 57l-25-32M264 57V4M306 30h-14M315 4h-23v53h30"/></g></svg>