<svg xmlns="http://www.w3.org/2000/svg" xml:space="preserve" width="73.539" height="13.539" style="shape-rendering:geometricPrecision;text-rendering:geometricPrecision;image-rendering:optimizeQuality;fill-rule:evenodd;clip-rule:evenodd" viewBox="0 0 242 44"><defs><style>.str0,.str1{stroke:#2b2a29;stroke-width:2.10279;stroke-linecap:round;stroke-linejoin:round}.str1{stroke:#000;stroke-width:2.4841}.fil2{fill:none}.fil1{fill:#a67b60}.fil0{fill:#cfa58a}</style></defs><g id="Слой_x0020_1"><path class="fil0 str0" d="M79 40c6-3 10-10 10-17-4 0-7-1-10-3-3-1-6-4-7-7-2-3-3-6-3-10-7 0-14 4-17 10-2 3-3 6-3 10 0 11 9 20 20 20 4 0 7-1 10-3zM79 6c3 2 5 4 7 7 2-3 3-6 3-10-4 0-7 1-10 3z"/><circle class="fil1 str1" cx="58" cy="23" r="3"/><circle class="fil1 str1" cx="64" cy="13" r="1"/><circle class="fil1 str1" cx="64" cy="35" r="1"/><circle class="fil1 str1" cx="75" cy="30" r="3"/><circle class="fil0" cx="123" cy="23" r="20" style="stroke:#000;stroke-width:2.10279;stroke-linecap:round;stroke-linejoin:round"/><circle class="fil1 str1" cx="111" cy="23" r="3"/><circle class="fil1 str1" cx="117" cy="13" r="1"/><circle class="fil1 str1" cx="117" cy="35" r="1"/><circle class="fil1 str1" cx="129" cy="30" r="3"/><circle class="fil1 str1" cx="130" cy="16" r="3"/><path class="fil2 str1" d="M37 7C29-1 16-1 7 7c-8 9-8 22 0 30 9 8 22 8 30 0M157 43V3M177 4l-20 20M183 43l-19-25M197 43V3M228 22h-10M235 3h-17v40h22"/></g></svg>